<?xml version="1.0" encoding="utf-8"?>
<!-- Generator: Adobe Illustrator 16.0.4, SVG Export Plug-In . SVG Version: 6.00 Build 0)  -->
<!DOCTYPE svg PUBLIC "-//W3C//DTD SVG 1.1//EN" "http://www.w3.org/Graphics/SVG/1.1/DTD/svg11.dtd">
<svg version="1.1" id="Layer_1" xmlns="http://www.w3.org/2000/svg" xmlns:xlink="http://www.w3.org/1999/xlink" x="0px" y="0px"
	 width="3032px" height="1520px" viewBox="0 0 3032 1520" enable-background="new 0 0 3032 1520" xml:space="preserve">
<g>
	<polygon fill="#AFAFB2" points="1831.126,1006.542 1830.943,1005.867 1830.425,1006.2 1823.581,1010.84 1825.434,1017.125 
		1819.158,1025.62 1815.102,1026.697 1816.037,1036.443 1809.061,1041.802 1802.249,1044.048 1798.795,1051.441 1787.495,1051.408 
		1777.897,1053.62 1776.612,1061.925 1775.444,1072.98 1774.793,1079.258 1778.715,1094.121 1776.328,1099.838 1768.6,1111.49 
		1764.426,1118.648 1764.426,1130.365 1768.3,1141.383 1768.717,1148.242 1777.897,1157.005 1782.271,1160.443 1798.444,1153.852 
		1804.587,1144.455 1817.673,1105.295 1826.236,1081.461 1828.772,1065.195 1832.428,1058.317 1830.191,1046.551 1833.28,1044.975 
		1835.749,1049.146 1840.205,1041.535 1838.771,1036.036 	"/>
	<polygon fill="#AFAFB2" points="1272.034,289.799 1294.3,282.639 1297.739,283.19 1298.849,283.366 1298.99,282.856 
		1302.438,270.947 1300.56,264.696 1309.255,259.58 1306.076,253.947 1305.023,250.717 1298.849,252.078 1296.252,249.449 
		1286.371,251.501 1281.322,256.909 1284.694,257.117 1286.371,259.372 1278.652,263.093 1274.078,260.482 1271.392,260.482 
		1268.979,264.195 1272.234,265.156 1269.371,268.987 1277.24,271.673 1270.323,275.354 1270.666,278.543 1265.825,283.065 	"/>
	<polygon fill="#AFAFB2" points="1308.153,234.103 1309.281,236.03 1313.795,234.103 1314.605,235.161 1311.083,239.301 
		1307.177,248.456 1306.743,249.449 1309.255,249.449 1309.438,249.023 1312.936,240.753 1313.627,242.88 1316.991,242.005 
		1317.142,246.386 1314.538,250.292 1312.603,253.204 1313.485,256.176 1314.897,253.947 1321.13,254.706 1327.934,254.706 
		1325.312,258.829 1326.798,261.367 1331.162,261.367 1328.392,265.156 1329.269,268.902 1321.157,271.656 1318.294,269.629 
		1315.906,270.947 1319.42,277.073 1319.304,277.59 1318.418,281.688 1311.059,283.558 1306.743,285.302 1306.743,287.596 
		1315.439,287.43 1320.146,290.968 1325.222,291.854 1327.882,288.857 1332.23,288.105 1331.446,290.518 1326.623,292.453 
		1316.69,295.5 1312.159,299.789 1301.937,306.041 1306.592,306.518 1316.291,301.936 1318.352,304.213 1321.748,303.462 
		1331.646,298.88 1341.028,298.788 1348.488,300.049 1354.689,300.049 1360.181,297.161 1362.066,295.884 1363.977,294.59 
		1362.543,294.106 1357.593,292.453 1357.868,290.418 1364.795,285.729 1365.739,285.094 1368.785,281.388 1368.108,277.25 
		1367.174,276.898 1363.319,275.462 1357.494,277.866 1354.422,278.024 1354.614,274.853 1356.375,270.947 1352.227,269.062 
		1348.262,267.25 1354.514,267.901 1354.322,265.247 1350.458,260.482 1346.736,258.354 1344.858,257.259 1342.704,252.711 
		1342.704,247.604 1340.075,244.709 1331.623,242.596 1327.089,241.32 1333.825,238.091 1341.586,229.051 1341.902,226.749 
		1342.079,225.455 1340.752,225.23 1334.676,224.195 1321.715,226.607 1322.549,222.876 1330.953,218.585 1332.782,214.798 
		1332.948,214.463 1332.548,214.497 1317.292,215.782 1315.415,222.192 1309.84,222.192 1309.957,226.691 1313.485,227.925 
		1309.281,230.028 1305.375,224.353 1300.56,228.034 1308.404,230.837 	"/>
	<path fill="#AFAFB2" d="M2827.997,1158.023l-5.124-9.748l-0.683-4.439l-5.243-1.868l-2.504-7.362l0.368-9.498l-6.142-4.222
		l-2.154,4.624l-2.986-7.11l1.435-4.843l-4.607-8.745l2.903-1.568c0,0-1.233-4.09-1.65-4.642c-0.35-0.55-4.324-0.701-4.324-0.701
		l-5.658-2.67l-1.268-5.207l-9.432-4.716l-0.115-2.953l-0.084-1.853l-1.836-5.059l3.537-7.503l-5.225-10.14
		c0,0,0.469-8.112,0.651-8.822c0.168-0.741,1.086-8.527,1.086-8.527l-4.474-5.293l-3.271-3.062l-5.091,2.695l-2.287-2.837
		l0.634-15.13l-3.304-6.511l-0.468-0.943l-1.652-7.719l0.25-6.812l-1.401-2.828l-4.224,2.104l-4.739,15.523l-8.397,34.083
		l-1.283,3.746l-4.909,14.339l-5.423,8.988l-5.342-0.208l-3.623-0.133l-4.004-3.164l-4.375-3.439l-5.457-2.97l-5.074-6.535
		l-9.649-3.321l-8.211-5.817l-3.138-6.777l4.039-5.14l3.957-6.134l-0.034-6.168l3.187-3.139l3.189,1.937l1.318-5.308l3.089-3.456
		l1.218-2.996l-8.73-4.047l2.137,4.331l-2.153,3.656l-4.088-3.807l-7.93-0.608l-7.878-2.896l-7.978-1.928l-1.653-3.572l-3.604,6.184
		l-4.29,4.591l-4.809-0.251l-3.972-0.935l-4.323,3.187l-3.738-1.092l-4.239,6.318l0.734,3.814l-6.492,5.391l-1.486,1.886
		l-4.608,5.833h4.925l2.069,3.487l-3.806,2.646l-5.324,3.622l-0.616-2.779l-6.577-1.819l-3.622,4.266l0.15-6.827l-3.188-5.599
		l-6.512-5.526l-2.002,4.482l-4.856,1.151l-3.989,3.64l-7.445,0.534l1.504,4.689l-3.139,5.091l-2.988-0.96l-4.39,2.445l1.903,8.187
		l0.451,1.887l-7.262-1.853l-3.272-1.343l-0.649,0.909l-0.351,0.466l-0.702,0.961l1.169,4.464l-4.624,7.42l-1.886-11.867
		l-9.331,7.837l-2.921,5.281l1.52,7.546l-1.452,1.051l-4.924,3.488l-9.531,11.06l-1.485,1.718l-12.484,4.082l-10.316,1.603
		l-9.947,5.341l-8.497,1.018l-23.817,11.166l-0.969,3.138l-0.985,3.056l-3.537,2.103l1.435-8.296l-4.591,3.789l-1.653,13.854
		l-6.409,9.898l0.217,3.706l0.15,2.637l1.636,4.84l2.654,7.896l-0.384,1.619l-1.084,4.289l-3.172,2.271l-2.369,3.103l3.521,43.448
		l-4.223,27.258l-4.69,5.44l-4.123-0.316l-2.62,6.677l7.828,7.478l13.921,3.022l4.841-1.737l6.959-6.175l6.943-0.77l0.585-0.45
		l8.363-6.342l30.745,2.303l14.021-8.411l10.482-6.311l35.519-8.862l4.189-0.702l19.529-3.287l7.512,4.939l4.256,0.651l2.354,0.617
		l9.58,2.521c0,0,0.185,5.491-0.299,6.293c-0.451,0.817,0.684,4.223,0.684,4.223l3.037-0.551l0.251,16.072l4.907,5.577l1.869-6.46
		l8.98-7.06l10.95-6.861l5.356-8.479l0.352,7.211l-3.389,5.242l-5.909,4.656l-6.091,10.566l-6.61,2.485v1.787l8.561-0.568
		l1.821-1.519l4.455-9.531l1.652-2.287l2.238,8.714l-6.944,6.459l-1.401,2.338l3.037,0.601l9.281-4.542l-2.487,15.323l-1.769,10.917
		l6.543,6.459l0.783,0.785l11.566,2.037l9.247,4.739l13.754-10.516l3.172,8.347l8.529-2.921l16.14-5.509l15.841-1.034l0.084-0.069
		l8.796-5.907l8.362-12.901l4.739-7.344l6.161-4.959l9.93-14.371l3.873-3.438l22.951-20.379l4.957-7.979l5.189-10.583l5.893-7.411
		l4.875-6.894l1.919-9.131l-0.352-5.457l-0.634-4.123l4.574-14.171L2827.997,1158.023z"/>
	<path fill="#AFAFB2" d="M2839.03,990.226l-7.611-6.978l-2.887-4.162l-2.988-2.279l-2.303-2.762l-2.971-1.244l-4.893-11.502
		l-5.841-5.691l-4.039-5.191l-0.117-2.211l5.993-2.479c0,0,2.82-0.709,3.622-1.685c0.116-0.167,0.199-0.318,0.217-0.468
		c0.1-1.234-2.055-4.354-2.304-4.54c-0.25-0.2-10.081-3.705-10.081-3.705l-5.477-1.503l-0.166-0.099l-3.522-3.823l0.118-4.406
		l-5.543-6.835l-0.533-0.643l-4.605-2.429l-16.66-8.703l-8.93-3.08l-6.943-3.882l-7.294-2.695l-9.614-2.212l-11.666-6.876
		l-5.46-1.586l-2.553,0.868l-1.952,0.666l-2.221,5.727l-2.87,2.128c0,0-2.505-0.927-3.623-1.144
		c-0.101-0.017-0.199-0.041-0.267-0.05c-0.935-0.1-8.045,11.059-8.045,11.059l-3.606,2.177l-2.438-0.275l-1.901-2.946l-1.721-1.786
		l-2.336-0.383l-1.87-4.407l-1.468-3.473l0.466-5.315l0.368-6.302l-0.767-2.311l-0.835-2.588l-10.517-2.887l-7.678,0.301
		l-8.262,4.031l-2.054,2.903l-1.369,1.963l6.26,3.312l10.533,7.22l4.539,0.642l7.527-2.362l0.102,3.949l-3.038,2.652l-3.122-0.918
		l-6.459,2.087l-3.872-0.034l-1.903,1.887l6.844,4.297l1.068,4.574l0.55,2.278l1.92,1.12l2.153-2.588l2.304-4.189l11.634,8.187
		l18.944,7.26l5.676,2.253l0.919,0.359l5.873,6.452l4.141,8.796l4.738,6.577h-3.787l2.421,3.914l-0.251,2.828l-4.106-1.193
		l-2.921,2.019l-3.939,2.68l-2.168,5.883l6.977,0.234l1.017-0.759l4.308-3.256l3.671-0.617l3.306,2.429l6.108-2.837l-1.569,5.057
		l13.554,9.204l9.314,1.487l6.877-1.421l3.171-3.17l-0.634-2.796l-6.009-2.362l-5.441-1.902l0.533-1.077l8.229,1.361l4.925-0.701
		l-1.336-3.339l-0.352-1.386l2.921,1.687l0.484,0.267l2.622-1.803l-1.838-2.019l-0.418-0.81l0.484-2.278l21.917,6.409l4.724,5.542
		l6.843,14.746l3.706,3.714l7.562,1.653l9.681,0.333l5.926,1.686v2.495H2839.03z"/>
	<polygon fill="#AFAFB2" points="2451.191,964.755 2452.21,964.871 2470.252,963.861 2478.699,968.918 2479.784,958.771 
		2468.9,958.288 2460.455,951.528 2453.212,945.71 2450.256,946.236 2446.602,942.814 2438.239,948.422 2425.087,947.18 
		2420.412,941.838 2409.146,937.481 2405.373,939.375 2398.062,937.481 2394.959,941.888 2391.086,947.313 2401.586,948.998 
		2400.049,952.687 2408.912,953.213 2419.746,957.277 2422.884,957.035 2427.172,956.719 2443.479,963.861 	"/>
	<polygon fill="#AFAFB2" points="2395.593,910.976 2398.062,906.41 2396.161,900.736 2394.491,897.605 2387.213,896.729 
		2385.11,893.817 2384.176,892.549 2383.008,884.854 2379.535,881.007 2375.748,881.633 2371.658,880.631 2371.106,876.902 
		2374.361,872.678 2376.815,867.913 2371.49,864.983 2366.064,867.354 2366.349,862.187 2351.861,849.77 2347.421,849.793 
		2320.298,820.693 2316.292,815.827 2313.271,812.188 2304.057,812.089 2297.814,808.624 2293.776,807.223 2290.354,807.849 
		2290.354,814.559 2296.312,822.905 2305.343,829.647 2313.99,839.337 2314.172,839.887 2314.873,842.157 2318.562,844.962 
		2324.371,849.552 2329.278,866.402 2336.906,869.456 2347.839,894.576 2348.206,895.428 2359.64,907.362 2362.694,915.524 
		2381.02,933.36 2382.69,931.464 2388.398,934.602 2389.217,932.934 2394.708,936.289 	"/>
	<path fill="#AFAFB2" d="M2526.619,813.733l2.738-0.486c0,0,0.867-1.442,0.867-1.818s-2.32-2.388-2.32-2.388l-4.924-2.169
		l-6.977-0.843l0.886-1.195v-2.151l-2.822,1.259l-1.401-2.645l0.885-2.646v-1.786l-2.688,0.242l-2.069-1.945v-1.71l-1.084-0.583
		l-1.637,2.936l-1.402-0.157v-4.032l-1.92,1.702l-2.871,5.909l-1.952,5.257l-2.704,3.615l-3.39,1.318l-0.099,3.688l-2.687,2.021
		l-4.423,1.034l-4.09,1.611l-4.673,5.292l-4.808,8.679l-3.938,4.173l-0.135,0.124l-3.22,1.679l-9.047,2.194l-3.556,2.881
		l-1.586,4.997l1.251,6.542l0.217,1.187l-7.177-2.605l-2.42-1.861l-1.453,1.719l-2.085-0.582l-2.353-2.898l-2.004-0.95l-2.553,2.061
		l-3.807,11.008l0.718,3.204l2.82,3.364l0.168,3.08l-1.419,2.936l0.701,2.388l8.597,7.368l1.185,3.572v5.376l0.017,10.13l1.717,0.51
		l2.605-1.084l0.518,2.511l8.763-2.195l2.737-0.541v4.689l0.701,2.938l6.643-1.762l2.637-0.768l1.619-3.839l3.621,2.287l1.905-0.351
		l1.418,3.998l4.925-2.454l4.273,6.601v4.006l0.483-0.241l9.08-4.64l7.645-10.474l2.386-5.792l0.353-0.843l-0.603-0.267l-1.836-0.81
		l-0.083-1.378l-0.101-1.485l-0.05-0.892l-0.066-0.985l0.049-0.051l6.177-5.09l3.738-3.088l1.521-0.935c0,0,0.816-1.361,0.884-2.771
		c0.016-0.443,0-1.118-0.033-1.801c-0.066-1.554-0.2-3.298-0.2-3.298l0.583-5.65l1.904-4.357l2.787-1.827l-1.235-2.119l-0.168-1.552
		l1.92,2.502l2.438,1.085l2.504,0.36l0.935,0.142l2.771-0.601l0.868-1.844l-1.721-1.686l-1.169-1.153l-7.927-4.396l-1.387-1.952
		l1.103-3.022l1.118-1.378l-0.367-3.037l-4.857-4.507l-2.504-1.361l-0.719-0.591l1.12-3.297l-2.021-1.694l0.435-0.81l3.555-0.534
		l1.369-1.611l0.116-1.686l4.423-3.196l4.959-0.559l3.571,0.016l-5.858-3.772l-2.003-1.66l-0.335-2.137l1.152-0.859
		L2526.619,813.733z"/>
	<polygon fill="#AFAFB2" points="809.704,1471.554 806.508,1468.014 809.119,1465.996 802.493,1462.724 795.783,1462.724 
		795.524,1463.124 793.012,1467.013 790.583,1468.483 791.903,1471.887 796.566,1471.503 801.184,1471.12 801.885,1473.222 
		798.294,1475.141 797.302,1477.411 797.236,1477.579 797.335,1477.646 800.815,1479.866 808.751,1481.869 809.446,1484.139 
		807.576,1485.658 798.562,1481.869 797.87,1481.901 790.166,1482.354 786.745,1485.908 798.613,1487.827 806.491,1489.08 
		806.8,1491.232 812.858,1493.419 812.858,1491.533 815.329,1491.35 816.782,1494.404 818.875,1494.404 818.875,1491.35 
		819.118,1490.164 821.562,1491.35 829.601,1491.35 831.486,1489.88 835.174,1491.35 836.667,1489.83 843.454,1488.794 
		843.454,1485.908 836.667,1485.908 	"/>
	<path fill="#AFAFB2" d="M1023.153,940.719c-0.327-1.126-1.352-5.64-1.561-6.45c-0.184-0.843-3.922-4.114-3.922-4.114l-5.15-1.887
		l-9.606-3.964c0,0-6.384-3.213-8.504-3.74c-2.129-0.549-0.45-0.458-2.612-2.762c-2.154-2.295-3.254-3.671-4.097-4.606
		c-0.569-0.634-1.904-2.028-2.73-2.895c-0.417-0.434-0.709-0.735-0.709-0.735l-3.906-0.901l-8.362-4.975l-1.937,0.567l-3.555,1.036
		c0,0-4.841-0.417-8.104-0.683c-1.536-0.127-2.739-0.218-2.913-0.218c-0.526,0-6.392-1.77-6.927-1.77
		c-0.525,0-8.871,0.717-8.871,0.717l-13.345,3.381c0,0,3.372-6.485,2.145-8.438c-1.228-1.952-0.86-5.692-0.86-5.692l-5.9-5.649
		c0,0-1.126-0.401-2.562-0.968c-2.771-1.077-6.803-2.78-6.661-3.597c0.202-1.236-12.617-1.244-12.617-1.244
		s-2.872,1.035-5.034,1.878c-1.06,0.409-1.952,0.785-2.244,0.959c-0.894,0.544-3.705,3.005-3.705,3.005l-5.559,3.248
		c0,0-3.763,6.45-4.114,7.226c-0.359,0.784-1.311-1.586-1.311-1.586l-5.208-2.478l-6.25-1.161l-1.502-3.981l-6.161-3.68
		l-3.321,5.449l-8.361,0.718l0.534-4.456l4.831-0.509l0.159-7.302l7.495-6.001l5.125-4.699l4.948-4.582l4.564-6.059l-2.169-5.107
		l-5.917-3.138L864,844.369c0,0-0.467-4.49-0.574-6.051c-0.109-1.569-0.66-7.411-0.66-7.411l-2.044-5.975
		c0,0-11.952-11.517-12.711-13.803c-0.759-2.27-3.523-0.493-5.793-1.761c-2.27-1.253-4.331-3.205-4.331-3.205l-5.909-0.833
		l-0.174-0.018c0,0-7.061-1.018-7.946-1.018c-0.901,0-5.474,0.61-5.474,0.61l-7.053,1.494l-0.376,0.075l-6.459-1.554l-3.604-4.372
		l-3.173-2.889c0,0-9.021,1.928-8.002-1.468c1.025-3.404,0.559-3.89,0.559-6.551c0-2.671-1.945-1.978-3.656-6.059
		c-1.711-4.082-3.972-1.936-3.972-1.936s-3.214-2.662-5.859-4.433c-2.679-1.786-1.961-0.55-1.961-0.55s-7.103-0.168-7.821-0.168
		c-0.701,0-4.265,0.886-4.806,0.718c-0.518-0.174-2.78-2.394-2.446-3.796c0.35-1.403,3.271,0.157,3.899-0.642
		c0.625-0.81,1.584-2.496,1.584-2.496s-0.099-1.16-0.2-2.321c-0.084-1.017-0.159-2.044-0.159-2.302c0-0.518-0.533-1.06-1.627-3.239
		c-1.085-2.186-1.535-1.427-1.535-1.427s-4.048,1.228-4.75,0.86c-0.666-0.359-3.338,0.359-4.456-0.126
		c-0.083-0.033-0.225-0.033-0.292-0.083c-0.91-0.751-1.911-2.203-1.911-2.203s-1.953-3.197-1.61-4.357
		c0.342-1.161-0.769-0.451-2.637-1.795c-1.829-1.343-3.398-1.476-3.923-1.476c-0.534,0-3.748,0.967-4.348,0.709
		c-0.601-0.25-3.314,2.596-3.314,2.596l-1.659,0.609l-2.647,0.96l-7.043,1.335c0,0-10.3-5.158-11.009-5.332
		c-0.718-0.168-8.563,0.307-8.563,0.307s-0.116,0.017-0.316,0.051c-1.286,0.184-6.311,0.875-7.379,0.609
		c-1.225-0.292-1.801-1.318-2.895-3.255c-1.101-1.936-2.871-3.93-2.395-6.159c0.467-2.245-2.613-0.609-5.818-2.387
		c-3.188-1.768-2.545-0.367-2.545-0.367s-5.09,0.192-6.007-0.385c-0.92-0.591-7.446,5.368-7.779,6.085
		c-0.359,0.71-3.555,4.8-3.555,4.8s0.7,8.879,0.976,10.607c0.283,1.726-0.802,4.473-1.034,4.931
		c-0.226,0.434-2.438,1.994-2.438,1.994s-4.391-1.627-5.734-3.22c-0.492-0.618-0.718-0.977-0.868-1.319
		c-0.25-0.576-0.276-1.077-0.701-2.328c-0.675-2.029,0.151-3.28,0.543-4.198c0.366-0.918,0.6-1.051,3.154-4.666
		c2.546-3.63,1.461-4.49,1.27-5.875c-0.202-1.394-1.754-1.085-1.286-2.254c0.45-1.167-1.186-1.835-1.519-4.681
		c-0.333-2.863,2.395-0.117,2.904-0.425c0.501-0.308,5.133-4.14,5.133-4.14l3.688-3.263l-3.13-2.036c0,0-0.967-0.151-4.514-0.802
		c-3.539-0.659-2.103,2.588-2.103,2.588l-5.299,4.147c0,0-2.237,2.396-3.23,3.238c-1.01,0.843-5.741,3.188-6.218,3.33
		c-0.484,0.133-3.081,0.527-6.159,0.434c-3.105-0.084-1.143,0.651-1.143,0.651s-1.253,2.664-2.321,3.414
		c-1.051,0.743-1.21,2.695-1.585,2.912c-0.367,0.226-2.671,1.144-3.739,0.251c-1.068-0.893-0.351-1.076-0.351-1.076l-2.596-4.131
		c0,0-1.393,0.9-1.943,1.442c-0.544,0.576-2.921,1.453-2.921,1.453l-0.26,8.737l-0.808,5.342l-2.496,3.146
		c0,0-2.304,3.555-4.14,2.93c-1.844-0.626-3.204,2.611-3.897,3.112c-0.7,0.501-1.018,3.914-1.018,3.914l-0.793,4.09l-0.892,2.27
		l-1.436-1.06c0,0-0.752-2.003-1.32-3.262c-0.575-1.262-1.551-2.722-1.242-4.525c0.308-1.795-4.44-2.837-4.44-2.837l-5.209-3.263
		l-3.237-1.378l-4.883-1.167l-6.059,0.583l-4.815,2.13l-2.278,3.086l-7.102,1.419H563.6l-5.842-0.859c0,0-3.407-0.484-4.366-2.337
		c-0.717-1.361-3.155-3.83-4.24-5.507c-0.374-0.585-0.6-1.077-0.525-1.395c0.317-1.21-1.369-3.923-1.369-3.923l-6.652-7.176
		c0,0-1.451-3.865-1.527-4.181c-0.057-0.242,0.117-3.705,0.325-5.993c0.06-0.642,0.127-1.227,0.176-1.577
		c0.258-1.603,0.568-3.43,0.869-4.799c0.307-1.368,1.218-4.022,1.294-7.194c0.099-3.179,2.278-3.747,2.628-4.807
		c0.359-1.076,1.376-4.431,2.728-5.85c1.311-1.419,2.996-3.381,3.19-4.615c0.182-1.253-0.719-4.982-0.719-6.05
		c0-1.061-3.547-8.906-3.89-9.38c-0.225-0.293-3.78-1.395-6.467-2.188c-1.644-0.492-2.971-0.868-2.971-0.868l-4.432-1.66
		l-20.305,2.061l-0.509-0.058l-7.62-0.868l-8.346,0.525c0,0-0.533-4.624-0.183-5.849c0.359-1.253,3.732-3.381,3.732-3.381
		l4.915-5.124c0,0,1.477-5.125,2.152-6.818c0.686-1.703,1.678-3.589,2.713-5.617c1.027-2.012,2.837-3.23,2.704-5.416
		c-0.134-2.197-0.576-4.206-0.392-5.459c0.175-1.235,2.545-3.764,3.373-5.133c0.816-1.393,1.418-3.205,1.059-5.599
		c-0.367-2.396,4.623-3.113,4.907-5.692c0.292-2.553,2.27-2.553,2.27-2.553s2.77-3.581,2.429-4.992
		c-0.368-1.427-1.612-3.913-3.448-3.247c-1.852,0.669-5.031,1.352-5.031,1.352s-10.883,0.527-11.777-0.408
		c-0.892-0.927-7.145,1.334-9.172,1.652c-1.962,0.301-1.685,1.535-2.737,1.711c-1.069,0.175-3.73,3.732-5.516,4.348
		c-1.761,0.617,0.183,3.472-0.935,5.643c-1.118,2.177-0.466,5.356-0.466,5.356v2.779c0,0-5.327,3.199-5.877,3.199
		c-0.526,0-2.753,3.178-2.753,3.178l-2.195,3.33l0.116,1.552l-6.334,0.486c0,0-9.614,2.819-11.392,2.819
		c-1.777,0-6.25,1.544-6.25,1.544l-4.249,0.969l-6.893-0.568l-0.067-2.68c-0.05-2.686-7.228-1.76-8.121-2.82
		c-0.885-1.059-1.803,0.301-1.803,0.301s-2.102-0.66-2.461-2.079c-0.35-1.427,0,0,0-1.244c0-1.242,0.359-1.951,1.378-5.006
		c1.034-3.047-3.147-3.163-3.682-4.232c-0.542-1.068,0,0-0.542-1.528c-0.526-1.517-0.876-2.203-1.945-4.331
		c-1.068-2.136-0.718-4.589-1.377-5.891c-0.65-1.294,0,0-2.186-1.393c-2.169-1.387-2.661-2.313-3.005-4.982
		c-0.359-2.664,0-1.587,1.227-4.574c1.244-2.997-0.533-4.316-0.559-5.191c-0.025-0.877,0.017-1.178-0.324-5.501
		c-0.336-4.322,0.708-3.914,0.708-3.914l2.279-5.966c0,0,0.776-3.957,1.068-5.318c0.067-0.301,0.241-0.941,0.467-1.702
		c0.735-2.595,2.052-6.893,2.052-6.893s1.888-3.798,6.459-7.478c4.566-3.68,2.038-2.27,2.206-7.544
		c0.157-5.266-0.486-3.39,0.933-7.203c1.427-3.813-1.434-3.821,3.355-12.877c4.782-9.055,5.969-4.081,5.969-4.081
		s5.957,0.266,14.385-5.724c8.439-5.993,0.443-5.393,1.52-7.162c1.06-1.777,5.668-2.611,10.089-1.653
		c4.4,0.952,5.193-2.354,16.192-4.389c11-2.02,5.199,2.646,5.199,2.646l11.041,6.317c0,0,3.931-1.436,8.939-4.815
		c4.983-3.38,0.759-3.08,1.092-5.549c0.093-0.643,0.235-1.202,0.426-1.679c0.544-1.393,1.479-2.128,2.73-2.094
		c0.15,0,0.376-0.066,0.55-0.083c1.836-0.201,4.999-1.529,6.61-1.845c1.786-0.358,5.691-1.777,5.691-1.777l1.786-0.71
		c0,0,5.851,0.334,11.368,0c5.5-0.334,8.17,0.71,8.17,0.71s4.273,4.855,7.811,6.459c3.531,1.627,5.775,3.063,5.775,3.063
		s1.679-0.275,3.573-0.501c1.794-0.209,3.798-0.367,4.782-0.209c2.036,0.334,1.41,0.518,7.553-1.711v13.144c0,0,0,0.903-0.017,4.165
		c-0.009,2.27-0.033,5.684-0.067,10.733c-0.009,0.726-0.025,1.461-0.025,2.261c-0.024,3.056,0,5.016,0.068,6.31
		c0.133,3.488,0.466,1.619,0.634,0.368l0.417,0.223l2.528,8.639l1.051,2.779l2.153,5.743c0,0,3.59,1.517,4.809,1.075
		c0.492-0.183,0.591-0.224,0.784-0.35c0.275-0.192,0.785-0.583,2.921-1.886c0.084-0.043,0.134-0.075,0.217-0.125
		c2.495-1.502,3.02-2.486,3.63-4.257c0.134-0.383,0.276-0.834,0.441-1.326c0.269-0.759,0.576-1.645,1.062-2.745
		c1.259-2.889,2.261-4.073,2.878-4.574c0.417-0.342,0.677-0.384,0.677-0.384l-1.711-7.728l-0.969-4.406l-0.225-1.01l-1.168-9.398
		c0,0-0.376-2.788-0.793-6.276c-0.426-3.497-0.451-4.397-0.608-6.334c-0.142-1.945-0.244-4.264-0.142-8.254
		c0.09-3.997,0.715-4.44,1.685-7.26c0.959-2.805,1.56-2.672,2.944-4.533c1.395-1.87,1.161-1.384,3.306-3.905
		c2.145-2.513,3.188-4.658,5.741-7.562c2.571-2.921,3.781-1.92,5.434-6.517c1.644-4.6,1.427-2.837,3.196-4.265
		c1.769-1.418,12.361-3.38,17.167-5.667c4.808-2.287,4.383-0.993,8.413-4.957c4.023-3.957,4.973,0.316,7.811-0.752
		c2.854-1.06,2.495-3.388,3.815-3.88c1.302-0.501,4.765-7.177,5.792-9.255c1.017-2.087,0.768-6.05-0.567-8.196
		c-1.337-2.136-3.706-4.24-3.706-5.659c0-1.427,0-2.854,1.292-6.366c1.294-3.523,0.486-6.068,1.913-9.281
		c1.418-3.188,5.441-5.2,7.82-7.812c2.353-2.614,10.648-0.71,10.648-0.71l4.658-0.35c0,0,3.337-2.579,4.238-4.273
		c0.176-0.335,0.51-0.81,0.918-1.328c1.586-2.07,4.399-5.058,4.399-5.058l2.137-5.515c0,0,0.391-0.351,1.176-0.819
		c0.501-0.292,1.118-0.617,2.011-0.976c2.287-0.926,3.648-1.019,5.342-1.577c1.676-0.551,2.845-1.068,5.865-3.73
		c3.014-2.663,3.966-1.846,4.626-1.878c0.666-0.05,3.011-0.168,5.148-0.284c0.335-0.017,0.593-0.043,0.868-0.067
		c1.494-0.124,2.253-0.292,3.031-0.417c0.917-0.167,5.741-3.922,5.741-3.922s2.044,0.709,3.613,1.436
		c1.56,0.715,2.545-3.048,2.545-3.048s1.169-4.931,1.119-6.334c-0.042-1.402,1.185-1.41,1.544-3.781
		c0.367-2.377,1.259-1.66,0.535-3.371c-0.043-0.109,0.007-0.234,0.015-0.341c0.11-1.621,5.425-3.257,6.56-4.467
		c1.202-1.268,4.965-2.661,4.965-2.661l5.35-3.956l3.899-1.369l1.059-1.778l5.333-2.453l4.69,0.476l5.642-2.195l2.453-2.762
		l6.035-3.54l2.502-0.718l6.369-1.268l4.255,0.342l10.708-6.909l1.92,2.036l2.328,2.42l2.822,2.646l-2.822,0.559l-6.627,1.06
		l-0.976,0.35c0,0-8.638,3.413-10.265,4.256c-1.61,0.844-2.42,1.56-3.905,2.779c-1.477,1.218-2.421,2.88-3.455,2.747
		c-1.053-0.151-0.259,2.987-0.41,3.471c-0.142,0.46-0.492,2.554-0.492,2.554l1.611,1.794c0,0,5.858,0,7.311-1.577
		c1.418-1.569,2.304-0.585,4.064-4.29c1.744-3.722,0,0,1.586-1.252c1.61-1.227,5.082-3.772,5.082-3.772l4.866,1.143
		c0,0,1.552-0.442,3.271-0.96c2.044-0.6,4.357-1.285,4.673-1.419c0.584-0.258,6.085-2.828,6.085-2.828l10.674-4.308l-3.347-3.145
		l-6.644-0.334l-3.613-0.785l-4.681-1.001l-1.578-0.985c0,0-5.9-3.454-6.601-4.873c-0.717-1.419-0.717-1.236-1.244-2.663
		c-0.542-1.41-0.542-1.601-2.136-4.264c-1.61-2.672,0.35-2.672,0.35-3.188c0-0.552,8.163-2.312,9.756-5.743
		c1.612-3.413-0.617,0.677-0.617,0.677l-6.251-0.484l-4.474-0.317l-4.273-1.419l-5.683,1.419l10.508-4.807l5.657,3.205l7.846-4.391
		l4.006-5.666l-6.719-4.933l-5.967,0.267l-15.164,2.471l-10.265,6.275l-14.33,9.031l-7.869,4.908l-7.77,4.079l-1.803,0.793
		c0,0,5.266-7.151,6.869-8.387c1.61-1.251,5.507-7.469,5.507-7.469s7.529-0.784,7.879-0.901c0.351-0.118,12.026-9.582,12.026-9.582
		l12.134-2.828c0,0,1.42,2.003,5.968-4.34c4.557-6.343,2.829-2.478,4.924-5.025c2.086-2.544,5.449-1.659,5.449-1.659l20.856,1.059
		l17.601,1.744l0.192,0.017l6.602,1.444l8.37-4.157l11.067-6.375l5.115-2.747l7.629-2.469c0,0,15.673-3.906,17.676-4.849
		c2.028-0.927,2.887-1.544,4.84-4.04c1.952-2.495-1.293-5.899-1.544-5.758c-0.233,0.134-3.814-7.836-3.814-7.836l-5.517-1.094
		l-11.383,4.498l-12.686-0.384l0.585-1.276c0,0,0.559-2.98,2.287-2.913c1.728,0.075,1.969-0.918,1.969-0.918l15.047-3.43
		l7.678-7.169l-8.503-1.435l-3.297,0.008c-3.306,0.009-9.481-0.243-9.256-1.519c0.159-0.843,0.259-1.31,0.218-2.112
		c-0.026-0.416-0.076-0.876-0.209-1.585c-0.359-2.079-1.178-0.944-3.781-4.022c-2.613-3.08-1.193-0.718-2.613-2.371
		c-1.426-1.661-0.125-2.529,0.561-3.531c0.642-1.008,1.401-4.397,2.31-4.363c0.936,0.049,3.773-3.005,4.206-4.216
		c0.443-1.201-1.985-4.64-1.585-4.865c0.418-0.241-1.694-1.26-3.697-5.058c-2.011-3.789,0.41-3.046,0.693-3.112
		c0.259-0.067-0.343-4.699,0.534-6.601c0.86-1.896,1.953-3.306,1.953-3.306s1.185-6.167,1.185-6.869
		c0-0.716-13.962,4.023-15.497,4.967c-1.52,0.944-2.255,4.264-2.255,4.264s-4.898,2.42-9.472,5.692
		c-3.347,2.412-2.519,2.611-1.844,2.554l-5.508,0.876l-6.935,1.11c0,0-2.939,1.235-3.315,1.719
		c-0.382,0.493-9.871-1.051-9.871-1.051s-0.968-1.887-0.968-3.555c0-1.653,1.176-2.604,1.562-5.541
		c0.383-2.947-0.134-6.302,0.591-8.905c0.694-2.614,0.777-3.222,1.745-3.123c0.967,0.109,3.463-3.512,3.463-4.222
		c0-0.709,1.427-3.562,2.353-7.11c0.952-3.557-6.392-1.887-7.069-3.94c-0.667-2.061-2.169-4.34-2.169-4.34s-2.119-1.66-2.119-2.613
		c0-0.95-8.531-4.256-8.531-4.256l-7.544,4.349l-4.231,1.102l-1.21-0.335l-6.36-1.726l-4.348-1.21l-5.724-0.06l-5.45,2.555
		c0,0-1.787,5.498-1.068,6.025c0.717,0.535-0.458,3.13-0.458,3.13l-6.077,4.18l0.084,6.494l-3.19,7.028l-5.59,1.15
		c0,0-6.985,5.491-7.594,5.902c-0.627,0.391-0.225,4.288-0.225,4.288l3.679,6.527l1.077,7.653l-4.507,8.429l-5.941,8.179
		l-21.066,3.789l-10.189,1.668l0.433,10.607c0,0-0.634,3.89-1.15,4.883c-0.518,1.011-3.506,6.919-3.506,6.919l0.084,6.943
		l-5.576,7.828l-1.887,0.944l-7.168,2.437l-2.07,0.709l-1.143,3.021c0,0-7.411-2.144-7.669-2.071
		c-0.252,0.075-3.74-4.806-3.031-7.167c0.712-2.378-0.483-1.903-0.7-3.573c-0.209-1.653-0.009-4.965,0.217-6.15
		c0.234-1.177,2.379-2.604,2.379-2.604l4.589-12.502l5.417-8.947l-2.129-1.326l-9.012-1.312l-7.703,0.118l-7.287,0.293l-4.18-5.717
		c0,0-4.308-1.853-3.856-4.241c0.46-2.386-0.475-2.603-0.709-3.321c-0.243-0.709-5.567-2.195-6.468-2.837
		c-0.376-0.267-1.102-0.668-1.827-1.028c-0.986-0.507-1.954-0.958-1.954-0.958l-6.534-1.728l-4.774,1.102l-4.498,0.951l-9.464-1.602
		l-0.551-0.092c0,0,1.961-1.352,3.122-2.787c0.909-1.153,0.107-3.006-0.269-5.025c-0.099-0.534-0.183-1.076-0.183-1.626
		c0-2.597-3.071-2.84-3.071-2.84l-3.08-1.901c0,0,0.81-5.918,1.635-7.293c0.478-0.811,1.019-1.612,1.57-2.406
		c0.393-0.567,0.801-1.135,1.194-1.686c0.937-1.293,2.704-6.375,3.889-8.037c0.55-0.767,1.827-1.285,3.413-1.91
		c1.803-0.727,4.006-1.621,6.085-3.272c3.871-3.097,6.141-4.215,6.141-4.215l7.862-4.473l8.019-5.508l2.822-4.308l5-0.79
		l13.184-2.088c0,0,3.607-3.513,3.607-4.214c0-0.718-3.798-1.428-3.798-1.428s-6.568-0.883-7.652-1.152
		c-0.043-0.009-0.133-0.024-0.159-0.032c-0.709-0.234-6.627-3.323-7.102-4.032c-0.468-0.709,0.233-3.321,0.951-4.731
		c0.709-1.427,6.751,4.297,6.751,4.297s0.761,0.26,1.879,0.628c3.037,0.967,8.804,2.661,9.839,1.943
		c1.419-0.984,9.297-0.082,9.297-0.082s3.756-1.469,6.577-2.437c1.033-0.368,1.969-0.66,2.503-0.784
		c2.053-0.452,7.145-1.253,9.815-5.943c2.662-4.682-0.25-2.829-0.25-2.829l-11.559-5.35l0.066-1.818l1.569-2.88l11.65,0.417
		l8.28,4.932l3.054,0.835l14.663-4.198l1.754-5.024l14.987-2.304l1.728-3.806l2.829-1.251l3.23,3.764l19.111-3.756
		c0,0,1.128-3.722,1.128-5.625c0-1.895,3.788-4.965,4.983-4.965c1.167,0,2.11,0.942,2.11,0.942s5.518-9.255,5.2-10.865
		c-0.342-1.619-1.636-2.212-1.636-2.212l-15.147-1.601c0,0-2.379,2.837-2.854,3.787c-0.468,0.944-5.801,3.606-5.801,3.606
		l-7.762,2.312l-9.279,8.82c0,0-8.588,4.065-11.017,4.441c-2.461,0.393-2.545-0.918-2.545-2.145
		c-0.017-1.227,1.594-4.256,2.762-6.143c1.177-1.902,4.348-2.745,4.524-3.012c0.191-0.259,0.458-0.851,2.103-3.398
		c1.669-2.51-1.804-3.295-1.804-3.295l-4.823,1.41l-10.181,6.158c0,0-4.315-0.449-4.791-0.767c-0.476-0.301,0.601-2.027,1.469-3.095
		c0.843-1.086,3.322-5.133,3.322-5.133s-4.149-0.426-7.169-0.701c-1.477-0.135-2.696-0.243-3.013-0.243
		c-0.953,0,0.251-4.406,0.251-4.406l4.047-0.851c0,0,7.119-4.397,6.659-5.225c-0.458-0.825,1.245-8.847,1.245-8.847l-10.784-0.808
		l-13.511,0.959l-3.94,8.296l-1.96,5.425l3.564,6.425l-0.559,4.107l-0.419,2.971l-6.367,2.111l-2.327,0.769l-4.25,1.41l-7.127,2.921
		l-8.112,9.137l-4.013,1.427l1.358-6.951c0,0,2.889-6.827,2.947-9.397c0.067-2.571-7.703-0.041-7.703-0.041l-0.142,6.476
		l-3.347,1.385l-6.852-1.436l-12.067-0.6l-10.465,0.217l-8.271-2.454l-9.388-1.419l-7.662-0.467l-21.583,8.136l-2.31,6.436
		l-0.043,0.116l-6.025-0.926l1.111-6.769l0.007-0.04l-0.041-0.018l-8.071-3.153l-8.995,2.378l-8.063,0.709l-12.318-1.193
		l-6.643-2.762l0.917-2.53l8.839-0.868l4.148-0.86l-2.27-5.29l-10.465-0.159l-11.727-2.313l-12.151-4.163l-7.344-3.037l-10.992,3.63
		l-5.357,1.344l-5.516-2.822l-8.697-0.066l0.243-2.604l-6.218-1.87l-10.207,2.362l-11.767,3.538l-7.72,0.836l-4.589,0.133
		l-8.189,1.66l-12,3.639l-9.021,0.025l-5.926-0.7l-2.253-0.944l-8.806-3.705l-3.221-1.135l-9.013-3.147l-11.785-2.446l-0.542-0.107
		l-19.478-2.696L343.6,99.953l-19.755-0.666l-8.688-0.544l-1.587-4.047h-6.132l-12.795-2.362l-21.171,5.642l-7.813,0.759
		l-4.574,0.434l-12.826,3.172l-14.33,2.553l-18.035,7.719l-23.334,2.446l-3.931,1.386l-6.852,2.436l3.639,5.667l0.258,8.121
		l9.173,0.359l0.617,4.323l-4.49,3.346l-14.764,2.237l-4.782-0.208l-0.634-5.176l-13.737,2.379l-3.938,0.985l-8.146,2.02
		l-0.217,0.058l-10.541,2.696l-1.995,5.775l-5.266,5.992l6.234-0.76l7.269-0.892l3.431,0.092l4.848,0.142l5.35,2.803l10.165-3.078
		l8.395-1.094l0.727,2.787l-6.001,0.493l-4.991,4.89l-0.342,0.26l-2.453,1.853l-4.448,4.822l-12.686,0.525l-3.171,0.127
		c0,0-0.335,0.041-1.418,0.084c-1.445,0.058-4.249,0.124-9.756,0.133l-1.127-2.22l-0.026-0.058l-0.266,0.133l-4.516,2.32
		l-0.767,0.392l-2.814,1.735l-5.616,3.465l-2.713,2.594l-8.879,4.507l-9.539,1.553c0,0-3.355,3.063-4.465,4.548
		c-1.085,1.469-1.168,4.081-1.686,5.633c-0.509,1.545-3.263,3.906-3.263,3.906l0.459,4.498c0,0,1.962-0.099,3.505-0.241
		c0.785-0.065,1.469-0.159,1.703-0.234c0.718-0.243,4.749-2.611,4.749-2.611l9.33-2.197l6.543-1.835c0,0-8.087,5.224-9.214,6.434
		c-1.118,1.219-8.086,4.23-8.086,4.23s-6.869,5.935-7.345,6.645c-0.467,0.709,3.639,3.071,3.639,3.071s8.454-4.265,9.598-3.08
		c1.143,1.177,6.817,4.44,6.817,4.44s10.749-6.325,12.645-6.803c1.894-0.483,6.201,3.79,6.201,3.79l2.594-0.325l6.595-0.86
		l-6.236,5.6l-7.744,6.953l-17.058,6.618L89.983,238.7l-13.244,2.846c0,0-13.771,3.972-20.464,4.365
		c-6.693,0.401-1.836,0-3.847,0.142c-1.987,0.159-4.59-1.427-4.59-1.427l-6.393,2.362c0,0-0.66,0.209-1.661,0.507
		c-3.255,0.978-10.232,3.057-11.125,3.057c-1.177,0-8.062,0.709-8.062,0.709L17,256.009l8.338,0.209l6.943-2.655
		c0,0,0.885-0.408,2.128-0.984c2.921-1.352,7.995-3.68,9.181-4.172c1.694-0.701,18.469,0.759,18.469,0.759l12.126-2.354
		l13.203-5.984l23.459-7.344l15.656-6.343l9.932-4.013l1.428-0.634l12.335-5.509l1.025-3.463l1.544-2.663l5.083-2.828l6.893-0.477
		l2.246-1.894l6.068-4.757l1.627-1.285l9.472-2.721l6.969-1.094l7.009-3.404c0,0,4.849-2.137,5.216-2.254
		c0.35-0.118,4.374-1.409,5.191-1.769c0.836-0.358,7.119-0.951,7.712-1.302c0.585-0.367,1.87,1.102,1.87,1.102
		s-3.414,3.396-4.232,3.865c-0.843,0.468-1.451,1.21-2.979,2.845c-1.511,1.636-2.956,0.234-3.321,0.234
		c-0.344,0-2.362,1.303-2.362,1.303s-4.609,0.825-5.684,0.825c-1.061,0-6.626,1.427-7.578,1.427c-0.944,0-4.148,1.477-4.148,1.477
		s-2.954,3.381-3.321,3.731c-0.342,0.358-2.47,1.194-3.08,1.303c-0.567,0.124-1.034,2.052-1.503,2.577c0,0-0.017,0.026-0.024,0.034
		c-0.485,0.467-1.635,2.739-1.635,2.739l3.521-0.836l0.058-0.018l5.199-1.343c0,0,6.618-1.861,8.705-2.453
		c2.078-0.619,4.574-1.395,6.936-2.112c2.36-0.725,5.716-1.769,5.716-1.769l4.556-1.393c0,0,0.46-1.937,0.576-2.295
		c0.101-0.359,2.313-1.987,3.014-2.655c0.692-0.675,2.194-1.476,3.572-2.102c1.343-0.635,4.314-0.417,4.314-0.417l5.926-0.477h4.707
		c0,0,7.118,3.523,7.795,4.206c0.65,0.668,3.003,4.165,3.003,4.165l6.754,1.068h5.674c0,0,11.65,2.93,11.992,2.879
		c0.367-0.033,1.878,1.27,1.878,1.27l2.136,2.536l4.473,3.74c0,0,1.077,3.914,1.219,4.488c0.101,0.602,0.843,2.122,1.511,2.496
		c0.692,0.401,2.012,0.526,2.012,0.526s2.736-0.174,2.861-1.001c0.117-0.811,0.117-1.885,0.117-2.253
		c0-0.342,1.229-3.263,1.778-3.54c0.551-0.29,0.944,1.546,0.944,1.546l4.047,3.137l-0.367,1.469l2.895,1.076
		c0,0,1.896-2.087,2.513-3.054c0.625-0.96,0.025-3.112,0.266-4.524c0.243-1.428,0.585-1.428,0.827-2.036
		c0.241-0.576,3.304-1.887,3.672-2.003c0.35-0.116,1.853-0.05,1.853-0.05s1.134,0.768,1.82,1.11
		c0.683,0.359,0.466,5.926,0.466,6.293c0,0.35,0.177,3.364-0.066,3.506c-0.243,0.133-1.853,3.396-1.853,3.396l-2.829,4.881
		l-1.569,2.446l0.391,7.194l0.71,3.438l3.563,3.555l-1.635,5.04l-1.444,3.246l-0.826,3.314l0.826,4.624l2.02,2.37l1.294,2.487
		l-0.476,3.072l0.024,4.23l1.636,3.824l-0.793,3.662l-0.148,1.786c0,0-0.428,1.987-0.719,2.846
		c-0.292,0.868-0.926,1.679-0.926,1.679l0.217,4.831l1.785,4.856l2.37,2.489c0,0,0.142,2.994-0.092,3.237
		c-0.224,0.251,2.463,1.977,2.463,1.977l1.853,2.872l-0.084,3.396l2.295,3.757l-0.176,3.003l-2.035,5.659l-2.22,2.637l-2.788,7.527
		l-1.286,1.47l-4.64,5.299l-4.965,0.761l5.167-2.513l0.408-3.172l0.542-1.46l1.135-1.268l1.077-1.219l-4.791-2.495l-2.461-1.286
		l-5.967-1.452l-3.022,2.746l-1.043,5.941l-0.468,8.581l-2.736,3.813l-1.477,3.013l3.981-0.017l0.808,2.304l-6.917,1.159
		l-3.84,3.473l-5.909,9.363l-7.611,10.314l-2.779,2.814l-2.988,3.029l-6.158,6.385l-3.489,11.317l-2.837,7.501l-3.056,4.641
		l-2.611,1.778l-2.079,1.736l-0.209,3.381l1.662,3.712l-0.258,2.68l-0.084,0.875l-1.786,6.01l-0.243,3.731l-0.267,4.146l1.611,4.591
		l1.093,0.609l2.238-5.2l2.728,1.32l-1.361,1.694l-0.675,4.874l-0.226,1.645l-0.442,2.203l-0.802,3.964l-3.312,3.621v4.681
		l3.596,8.005l1.16,6.392l-2.437,3.899l0.234-0.043l2.479-0.434l3.062,0.368l2.756,0.341l3.22,3.498l1.302,1.386l3.188-0.377
		l1.411,2.812l1.77,0.618l2.945,3.289l1.912,6.425l-0.042,9.014l0.475,9.664l1.794,6.953l0.709,5.658l1.41,5.324l3.908,4.982
		l3.63,4.399l1.043,4.965l-1.436,3.706l-2.336,2.195l-3.472,0.341l-3.673,0.327l3.615,6.702l9.965,3.787l1.259,3.347l2.004,2.704
		l0.208,0.284l2.962,0.885l1.436,2.621l-0.151,4.24l-2.585,5.182l0.558,4.473l2.745,4.073l10.674,7.793l2.353,5.451l0.652,3.732
		l4.732-5.167l-1.352-4.733l-5.499-3.671l-4.349-24.996l-2.411-2.527l-2.663-10.801c0,0-2.371-2.595-2.496-2.929
		c-0.125-0.351-0.066-6.576-0.066-6.576l-5.608-7.353l-2.154-8.195l-1.227-7.579l0.318-8.47l1.87-8.596l4.69,3.188l5.182,0.918
		l1.335,1.302l4.481,2.186l-0.4,2.688l-0.926,10.131l4.374,16.443l3.622,7.275l4.472,0.845v2.452l0.66,5.125l3.706,1.435
		l1.385,3.672h2.336l1.627,3.288l-3.179,5.509l2.721,5.066l8.037,4.313v5.491l4.122,4.966l8.722,12.109l1.135,3.764l3.998,13.229
		l-1.687,7.519l0.726,2.904l0.469,1.837l-1.045,0.166l-3.013,0.477l1.16,5.909l0.559,2.837l7.321,6.3l7.443,8.279l6.61,2.22
		l8.522,2.403l5.332,6.652l11.326,7.134l9.88,4.783l9.89,4.783l9.998,3.913l10.29-2.22l5.208-3.587l5.975-1.127l7.237,2.962
		l8.344,9.464l7.503,10.482l10.434,5.084l7.385,1.459l11.2,4.441l3.362,1.326l5.034-0.017l6.141-1.367l1.67,2.076l-0.452,4.047
		l9.699,14.44l4.089,6.074l-0.651,8.322l1.294,1.877l1.743,2.545l2.546,0.26v-4.682l5.475,5.224l3.906,2.278l3.229,2.437
		l0.185,0.584l2.084,6.902l3.24-0.434l2.119,4.433l3.705-0.544l9.724,2.839l4.731,3.688l4.299,6.593l5.156-2.487l2.73-1.995
		l-4.89-6.334l1.21-2.345l5.141-1.711l3.046-3.17l3.63-2.397l9.114,4.382l4.773,4.23l-2.753,2.521l5.591,20.012l-0.976,9.239
		l0.944,10.833l0.5,5.775l-5.476,16.05l-6.409,1.334l-4.857,12.635l-11.159,4.565l-1.786,5.416l-2.136,6.51
		c0,0-4.265,7.545-5.257,7.678c-1.002,0.125,0.625,15.155,0.625,15.155l4.098,3.222l5.232-4.632l-0.241,8.781l-7.211,8.995
		l-3.714,5.477l0.585,11.449l0.717,7.936l9.548,10.74l9.623,10.833l19.92,40.911l8.196,10.466l6.218,9.221v8.696l8.553,11.985
		l16.408,9.924l3.013,1.801l24.953,16.576l5.618,5.625l3.787,3.78l6.118,16.316l0.552,1.442l1.126,22.175l0.675,13.286l0.051,15.89
		l2.396,7.078l0.518,8.395l-0.043,0.552l-2.794,35.619l4.447,9.865l-2.27,5.373l1.662,6.743l4.397,9.982l2.119,15.505l-1.36,20.181
		l-1.419,21.232l-3.396,5.457l7.771,16.625l2.219,8.246v14.403l11.859,8.781l4.548-1.503l1.386-0.468l-0.584,6.643l2.695,4.357
		l-0.608,9.012l0.8,2.271l1.928,5.509l6.626,5.491l-1.877,5.691l1.494,4.456l-0.41,2.455l-1.084,6.409l0.091,7.261l2.604,8.529
		l4.949,2.637l2.48,5.341v8.431l2.837,7.127l5.157,7.193l0.226,0.301l1.56,2.604l1.494,5.225l2.646,1.651v3.523l2.319,2.186
		l2.622,2.538l1.393,3.422l5.167,3.405l0.817,4.339l2.203,0.483l2.261,2.254h0.034l2.763,0.033l0.876,1.502l13.286,4.073h2.755
		l-4.007-8.447v-2.619l6.126-2.021l2.696-1.886v-3.188l0.575,0.184l0.735,0.267c0,0,5.05,2.037,4.948,1.135
		c-0.075-0.866,0,0-0.341-0.533c-0.368-0.518-1.694-1.77-2.478-3.106c-0.81-1.334-1.344-0.784-1.604-0.784
		c-0.191,0-1.068-0.231-1.693-0.55c-0.284-0.134-0.518-0.267-0.626-0.435c-0.342-0.533-0.092-1.702-0.535-3.204
		c-0.441-1.502,0,0-0.701-0.969c-0.718-0.983-0.809-0.801-1.251-1.519c-0.41-0.667-1.711-3.572-1.995-4.389
		c-0.017-0.051-0.034-0.118-0.042-0.151c-0.175-0.601,0.969-2.37,1.151-3.088c0.093-0.368,0.05-0.767,0.084-1.202
		c0.033-0.398,0.125-0.817,0.493-1.233c0.016-0.018,0.008-0.034,0.025-0.034c0.675-0.868,0.033-1.452,0.299-1.902
		c0.293-0.484,0.761-1.754,0.703-1.854c-0.067-0.134,1.427-0.552,1.861-0.885c0.441-0.351,0.884-0.1,1.243-0.351
		c0.359-0.268,0.266-0.701,0.266-1.152v-1.868c0-1.253-0.266-1.151-0.533-2.037c-0.267-0.9-0.535-0.533-0.61-1.618
		c-0.108-1.052,0.268-1.236,0.318-2.003c0.049-0.784,1.094-1.103,1.444-1.453c0.359-0.351,2.053-1.251,2.487-1.868
		c0.441-0.603,1.435-1.418,1.861-2.521c0.441-1.086,2.077-1.387,3.121-2.253c1.051-0.868-0.358-1.186-0.526-2.504
		c-0.183-1.334-0.594-1.736-0.892-2.136c-0.31-0.402-0.628-0.301-0.368-0.603c0.25-0.301,1.077-1.734,1.077-1.734l0.258-2.555
		l-2.496-2.704l-1.493-0.768l-4.097-1.653c0,0-1.829-0.666-2.863-1.017c-1.027-0.384-3.222-1.337-3.665-1.537
		c-0.466-0.199-1.81-0.217-1.577-0.834c0.234-0.634-3.254-1.151-3.521-1.603c-0.267-0.449-0.084-0.449-0.26-1.651
		c-0.166-1.218-0.993-3.055-0.993-4.307c0-1.234-0.567-2.104-0.425-2.754c0.142-0.686,0.593-1.702,0.969-2.486
		c0.367-0.753,0.776-1.219,1.945-2.638c1.167-1.418,3.821-1.972,4.63-2.521c0.793-0.518,5.066-0.165,5.066-0.165l-0.776-3.139
		l2.637-2.104l0.26-4.072l-2.788-4.088c0,0-0.326-2.938-0.259-3.823c0.083-0.886,0.193-0.867,0.676-2.086
		c0.475-1.22,1.662-2.987,2.621-4.041c0.952-1.068-0.301-0.148-0.301-0.148s-1.636-0.051-2.178-0.401
		c-0.526-0.351-1.41-0.784-1.67-0.868c-0.275-0.1-0.634-1.603-0.634-1.603l3.381-0.434c0,0,3.437-0.251,3.706-0.183
		c0.241,0.066,1.609,1.401,1.609,1.401s2.947,1.335,3.463,1.051c0,0,0.394-1.769,0.911-2.386c0.493-0.584-0.96-2.17-1.177-2.688
		c-0.183-0.416-0.675-1.219-0.626-1.853c0.009-0.151,0.026-0.299,0.101-0.417c0.45-0.667-0.877-1.602-0.877-1.602l-2.321-0.984
		c0,0-1.778,0.082-2.044,0.082c-0.249,0-1.243,0.902-1.243,0.902l0.609,1.802l0.993,0.149l0.234,0.803l0.408,1.419l-1.167,0.817
		l-2.854-0.117l-3.105-0.533l-1.317-0.284l-1.078-0.234c0,0-1.334,0.435-2.57-0.634c-1.251-1.051-0.718-3.188-0.718-5.675
		c0-2.486,0.81-2.604,0.718-6.593c-0.101-3.924,2.47-1.22,2.47-1.22s4.449,1.403,5.876,1.22c1.418-0.166,4.789-0.166,4.789-0.166
		s4.449-0.519,7.463-5.159c3.004-4.59,0.182-3.572,0.359-5.142c0.182-1.568-2.922-3.639-2.472-4.89
		c0.451-1.219-0.901-3.104-1.602-5.408c-0.717-2.32,0-2.57,0-2.57s0.701-2.938,1.411-3.12c0.517-0.134,1.736-0.284,2.387-0.352
		c0.25-0.033,0.432-0.051,0.432-0.051s4.467,2.188,5.351,2.188c0.893,0,5.684,0.517,7.821-0.185c2.128-0.718,7.276-0.9,7.276-0.9
		l5.048-2.087l3.34-1.402c0,0,3.622-2.036,4.181-2.419c0.559-0.402,1.919-1.888,2.446-2.555c0.508-0.634,4.039-8.246,4.039-8.246
		l1.117-11.082l-5.249-2.036c0,0-1.244-5.676-0.35-6.76c0.884-1.068-3.731-3.89-3.905-5.509c-0.176-1.586-2.622-3.021-2.622-3.021
		l-6.109-2.169l-2.695-1.269l-2.947-4.207l0.702-1.519l9.748,2.787l9.907,4.857l8.41,1.519l6.377,1.97c0,0,6.584-4.355,6.402-5.691
		c-0.168-1.318,7.452-7.277,6.76-8.464c-0.71-1.168,2.888-7.443,2.888-7.443l3.812-10.482c0,0,0.692-1.236,1.887-2.837
		c1.202-1.619,3.529-2.988,5.582-4.574s1.694-1.502,2.446-2.27c0.75-0.784,3.596-6.158,4.523-8.862
		c0.934-2.738,0.918-3.422,1.527-6.093c0.609-2.655,1.303-5.392,2.087-7.863c0.776-2.486,1.11-2.704,3.162-5.891
		c2.053-3.171,3.173-3.37,3.173-3.37s3.129-9.282,3.112-12.354c-0.008-1.117-0.05-1.769-0.133-2.304
		c-0.142-0.967-0.417-1.585-0.836-3.705c-0.667-3.321-3.046-5.14-2.427-6.376c0.609-1.235-1.386-3.155-1.386-3.155
		s-0.301-7.41-0.417-7.561c-0.101-0.134,4.623-2.921,5.642-4.222c1.001-1.319,1.176-0.918,2.787-2.837
		c1.593-1.888,6.084-3.205,8.562-5.709c2.495-2.472,7.103-5.491,8.329-6.761c1.201-1.252,2.605-0.017,4.832-3.723
		c2.228-3.688,6.435-3.438,7.462-4.24c1.026-0.834,8.153,0.868,9.939,0.168c1.769-0.718,5.683-0.886,5.683-0.886
		s6.218-0.6,7.469-1.952c0.602-0.651,0.827-1.552,1.053-2.336c0.233-0.851,0.475-1.586,1.152-1.786
		c1.301-0.417,6.184-3.573,6.184-3.573s1.201-4.388,1.201-5.091c0-0.732,0.794-7.294,2.12-8.179
		c1.369-0.917,0.541-2.319,1.085-2.854c0.551-0.533,4.948-3.721,4.948-3.721l4.983-6.577l0.552-5.866l-2.897-6.619l0.133-3.204
		l0.109-2.979c0,0,0.901-1.485,1.778-2.938c0.718-1.211,1.41-2.396,1.578-2.729c0.359-0.71,2.837-10.649,2.987-13.129
		c0.142-2.478,0.175-5.517,0.024-8.546c-0.149-3.037-1.225-7.318-1.619-8.904c-0.367-1.618-1.392-5.967-1.392-5.967l-0.36-8.054
		l2.146-6.561l5.106-3.453l4.131-4.884c0,0,4.014-9.93,4.156-10.416c0.158-0.475,2.937-5.398,3.296-6.107
		c0.367-0.701,1.937-0.534,1.937-0.534s4.424-5.025,4.783-5.375c0.208-0.227,2.737-3.964,4.715-6.936
		c1.251-1.887,2.287-3.438,2.369-3.605c0.251-0.417,5.902-13.986,5.902-13.986l1.434-9.541l-0.441-5.532
		C1025.932,949.5,1023.485,941.854,1023.153,940.719"/>
	<path fill="#AFAFB2" d="M646.17,667.691l5.266-1.126l8.948-0.267l1.801-0.058l3.74,0.293l1.61,7.2l4.398-3.663l1.352-3.748
		l0.81-2.528h3.755l1.077,1.335l1.536,1.335l3.229-2.67h10.749l1.861,3.037l3.306-1.601c0,0,0.993-3.781,1.202-4.974
		c0.217-1.21-2.971-1.861-2.971-1.861l-6.16-2.154l-3.656-1.577l2.07-1.986c0,0-2.895-2.311-4.172-2.487
		c-1.269-0.168-2.762-0.602-3.113-1.887c-0.358-1.277-4.122,0-4.122,0l-8.338-0.675l-2.136,1.502l-4.759-0.393l-4.273-0.435
		l-2.136-1.535H655.5h-1.652l-1.101,2.962l3.364,1.687l0.701,0.625l1.986,1.744l-0.226,5.184l1.703,3.087l-0.901,0.226l-1.978,0.526
		l-4.616-0.802h-5.232l-4.516,0.05l-2.553,2.471l1.919,1.292L646.17,667.691z"/>
	<path fill="#AFAFB2" d="M612.464,644.048c0,0-1.653,2.171-1.954,2.504c-0.309,0.325-1.603,0.217-1.603,0.217l6.928,1.535
		l7.819-1.168l3.464-0.3l0.8-0.067h4.557h4.14l5.375-0.475l2.713-0.743l1.326-1.787l-2.879-2.553l-5.19-1.419l-3.923-0.826
		l-0.494-0.1L632,636.127l0.367-1.534l-4.815,0.492c0,0-3.722,0-4.257-0.174c-0.374-0.127-1.352-0.159-1.902-0.168
		c-0.226-0.008-0.4-0.008-0.4-0.008s-3.214-3.029-3.555-3.914c-0.368-0.886-4.974-3.556-5.692-4.432
		c-0.709-0.892-2.496-1.077-2.496-1.077l-4.941-4.172l-5.541,0.092l-5.283-5.225l-2.438-2.111l-7.193-3.013l-3.371-0.643
		l-1.954-0.376l-6.117,1.002l-0.101,0.017l-3.421,0.333l-5.641-0.333H559l-2.929,3.804l-2.887,1.829l-3.448,3.582l-2.394,3.077
		v1.987l2.044,2.103l2.455-2.854l4.924-2.895l6.125-6.143h5.166h1.027h4.656l3.088,2.311l-0.034,0.066l-4.974,1.144l1.202,0.92
		h2.764h0.073l8.531,0.892h3.321v3.755l4.189,2.188l8.838,0.574l5.2,0.935v3.739l0.451,4.282l1.685,1.827l3.664,0.376h5.142
		l1.61,2.562l-2.354,2.687L612.464,644.048z"/>
	<path fill="#AFAFB2" d="M2699.893,1333.766c0,0-4.842,1.786-5.91,2.188c-1.067,0.4-4.772,1.184-4.772,1.184
		s-0.401-0.033-0.968-0.101c-1.085-0.148-2.839-0.417-3.557-0.785c-1.052-0.516-3.421-3.286-3.421-3.286l-2.403-2.171h-1.252
		c0,0-1.068,0.034-2.471,0.367c-1.435,0.334-1.586,1.135-1.586,1.135s-1.102,4.157-1.102,5.644c0,1.484,0.217,3.437,0.217,3.437
		l-0.018,5.492l-2.568,4.206c0,0-1.854,2.136-2.02,2.521c-0.168,0.368-0.502,4.322-0.502,4.322l1.219,2.389l4.039,1.985h1.836h2.921
		l2.371-3.823l2.47,0.702l4.072,0.884l4.189-2.035l2.338-5.074l0.9-2.387l3.105-3.689l3.203,0.751v-1.902l2.336-4.341l4.309-6.76
		l-3.639-1.602L2699.893,1333.766z"/>
	<path fill="#AFAFB2" d="M2931.617,1338.006l-0.668-2.986l2.938-3.924l1.703-2.037h-4.641c0,0-4.625,3.457-4.975,4.007
		c-0.35,0.535-2.753,5.225-2.753,5.225l-0.684,0.567l-4.091,3.373c0,0-5.607,2.753-6.041,3.068
		c-0.435,0.302-6.377,5.827-6.377,5.827l-3.689,5.024c0,0-12.5,3.337-13.268,3.604c-0.735,0.251-8.062,4.408-8.748,5.092
		c-0.717,0.718-9.765,2.704-10.48,2.504c-0.718-0.199-7.193,4.739-7.193,4.739s-4.49,3.489-4.941,3.923
		c-0.452,0.435-6.512,1.471-6.911,1.604c-0.4,0.166-4.24,2.571-4.99,3.22c-0.719,0.651-2.253,2.822-2.253,2.822
		s-3.639,3.054-4.557,3.839c-0.869,0.817-4.592,3.005-4.592,3.005l-1.2,2.82l5.474,0.417l2.087-0.484l3.689,2.988l0.466,0.55
		l1.82,2.171l8.714-0.752l9.412-6.893l7.745-2.653c0,0,3.973-2.972,4.975-3.806c0.467-0.385,1.051-0.918,1.586-1.402
		c0.617-0.552,1.118-1.036,1.118-1.036s5.541-5.642,5.774-6.726c0.233-1.085,2.586-3.389,2.586-3.389l6.761-4.606l7.428-1.702
		l4.824,1.702l2.504-1.537l0.7-3.804l0.77-1.537l2.303-1.735l5.525-2.604l6.426-3.356l5.408-3.488l3.738-3.254
		c0,0,1.685-1.97,2.053-2.519c0.184-0.235,0.567-0.903,0.918-1.57c0.468-0.885,0.936-1.771,0.936-1.771v-4.807l-3.572,1.419
		L2931.617,1338.006z"/>
	<path fill="#AFAFB2" d="M3008.664,1296.027l-3.521,0.535l-5.057,2.586l-4.959,2.404l-1.835-0.017l-3.89-1.67l-0.817-0.333
		c0,0-1.619-2.954-1.653-3.773c-0.05-0.815,0.501-2.953,0.919-4.038c0.4-1.086,1.718-3.239,2.02-3.688
		c0.284-0.468,0.584-2.755,0.584-2.755l-2.604,2.52l-3.221,3.522l-2.305,0.752l-1.686-0.785c0,0-0.133-5.891,0.233-6.843
		c0.352-0.936,1.136-2.487,1.921-4.073c0.784-1.552,1.935-4.007,2.136-4.49c0.184-0.467,0.901-2.819,1-3.354
		c0.102-0.534-0.049-2.889-0.049-2.889l-2.137-1.768l-1.335-1.219l-1.72-1.804h-3.055l-1.618,4.039l1.335,4.072l-1.652,7.528
		l0.55,4.856c0,0,0.535,6.144-0.366,6.878c-0.919,0.667-0.434,5.592-0.434,5.592l-3.038,4.791c0,0-4.624,4.974-5.408,5.758
		c-0.817,0.801-4.456,1.786-4.974,1.954c-0.519,0.183-3.17,3.22-4.157,3.555c-0.933,0.35-2.068-0.351-3.488,0.367
		c-1.419,0.701,0,0-0.284,1.301c-0.299,1.337,1.02,3.121,1.02,3.121l3.372,2.822l1.952,3.17c0,0-2.688,3.256-3.205,3.606
		c-0.533,0.368-2.203,3.521-2.203,3.521s-3.755,2.437-4.223,2.755c-0.45,0.316-2.152,1.602-2.152,1.602l-1.653,1.702v2.605
		l2.753,0.967l2.855,0.034l5.876-2.454l5.457-4.039l2.872-2.704c0,0,5.926-6.394,6.441-6.945c0.518-0.55,2.354-2.469,2.955-3.103
		c0.6-0.619,1.986-3.356,3.071-4.407c0.785-0.835,1.802-0.618,2.571-0.7c0.267-0.034,0.483-0.084,0.666-0.202
		c0.752-0.516,2.889-1.701,2.889-1.701s3.572-1.353,3.972-2.387c0.417-1.035,4.757,0,4.757,0l0.435-1.387l2.27-2.536
		c0,0,1.87-1.219,2.304-1.502c0.451-0.267,5.475-2.938,5.475-2.938l2.087-1.369l3.205-3.588L3008.664,1296.027z"/>
	<path fill="#AFAFB2" d="M2304.282,696.809l11.8,29.494l0.751,33.584l0.034,1.326l0.049,0.225l0.151,0.727l1.102,5.24l1.636,7.695
		l15.572,23.476l7.177,29.753l31.848,27.307l5.057-2.938l-10.182-15.673l-0.801-22.984l-16.123-16.941l-14.573-7.128l-7.995-20.771
		l-0.25-0.643l-6.144-8.146l0.735-3.871l6.827-37.113l6.893-2.747l14.588,15.073l13.47,13.911l7.678,6.794l8.012,20.13l11.968-8.787
		l5.524-11.192l9.398-4.808l11.934-6.117l0.383-23.644l0.102-6.309l-14.088-17.209l-20.43-24.969l-4.573-5.942l-3.438-4.516
		l1.369-15.505l2.069-2.179l14.771-15.439l16.108,2.295l9.715,1.485l22.016-9.938l25.954-7.354l3.706-3.247l6.961-6.092
		l13.103-13.294l5.691-5.784l-1.653-13.863l9.615-16.849l4.006-20.038l-13.771-5.424l-0.751-20.722l-21.434-21.023l-10.263-10.074
		l12.017-14.721l9.78-11.968l-20.496-5.165l-7.979,9.045l-7.678-8.619l-6.809-1.036l-8.58-5.976l-1.153-8.221l9.533-3.329
		l5.707-7.979l5.192-7.252l1.469-2.07l10.282,2.605l0.133,8.903l0.117,7.845l0.083,5.384l4.123-2.946l4.539-3.255l9.999-7.153
		l15.905,3.748l3.758,13.538l0.05,0.023l6.442,3.188l6.375,3.164l0.467,1.051l3.089,7.002l13.12,29.686l22.584-11.425
		l-11.586-15.323l-11.416-15.097l-10.082-13.345l-3.188-4.206l12.869-12.577l-2.604-17.134l15.323-5.209l12.234-0.316l1.085-0.025
		l1.584-3.012l6.511-12.378l8.229-39.609l-13.203-30.067l-7.762-13.855l-7.811-13.911l-19.848-9.014l-2.103-0.951l-2.955-1.328
		l-7.394,8.488l-16.273-11.508l-5.827-0.761l-10.381-1.343l2.487-6.201l16.457-41.26l28.609-0.468l7.444-0.116l8.914-0.151
		l1.151-1.285l4.089-4.507l24.37,7.886l14.353-0.25l0.718-24.67l0.119-0.033l6.959-2.303l6.743-2.229l13.987,9.99l9.464,1.653
		l1.819-17.318l16.106,0.426l1.437,18.97l-4.406,14.304l-8.08,26.255l33.434,30.27l25.537,23.134l6.41,5.809l-5.207-28.735
		l-3.873-21.331l-1.586-8.745l-0.483-2.738l-16.825-10.741l-8.012-16.55l-0.633-5.507l25.754-1.436l10.916-0.601l12.852-0.718
		l4.907-10.231l-11.416-29.327l10.948-4.29l-6.459-11.342l3.84-4.398l15.855,4.791l5.709,1.728l13.236-6.744l-30.396-9.806
		l-12.118-3.914l-14.487-4.675l-26.172-8.453l-0.251-0.024l-19.062-2.33l-44.147-5.373l-13.754-1.67l12.018,9.063l5.742,4.332
		l-6.51-1.101l-33.7-5.694l-17.325-4.105l-28.96,1.627l-9.397-3.705l-9.58-3.773l-5.609-2.202l-4.572-0.05l-14.304-0.142
		l-28.492-0.275l-2.588-0.61l-27.224-6.41l-5.741-1.361l1.135-2.386l0.067-0.141l-0.301-0.05l-16.675-2.912l-2.302-0.402
		l-9.582,5.876l-11.033-3.823c0,0,2.037-2.227,2.938-2.462c-2.971-0.008-30.446-1.744-30.446-1.744l4.623,10.383l-9.279,2.803
		l-42.011-4.682l-2.27,8.112l-7.545-3.037l-9.814-2.655l-11.668-3.155l-6.508-4.756l-1.904-5.466l-36.854-6.326l-2.72,5.073
		l-2.27-0.325l-27.074-3.798l-6.109-0.859l-23.634,1.586l-11.301,0.752l-24.704-6.887l-0.567,0.418l-9.664,6.97l-20.33,5.139
		l0.401-1.802l26.423-17.067l6.875-4.448l-10.749-3.872l-23.918-8.596l-27.256,2.695l4.69-4.356l-23.702-1.711
		c0,0,7.895-3.222,8.429-3.029C2058.018,37.21,2036.22,36,2036.22,36l-3.94,4.924l11.067,4.615l-11.501,3.807l-5.576,0.016
		l-47.269,0.083l-9.064,3.013l-10.698,3.547l5.258,11.909l-34.369,3.33l-7.828,0.76l7.211,8.57l5.726,1.186l10.048,2.07l1.785,2.119
		l-9.965-0.341l-4.823-0.159l-13.437-3.014l-3.306-0.741l-14.788,3.896l16.057,5.501l9.463,3.246l-9.863-1.587l-19.88-3.211
		l-1.369-7.353l-13.604,6.71l11.883,7.267l5.075,12.97l13.954,0.402l2.805,0.075l20.363,10.865l-0.735,5.75l-24.153-9.38
		l-3.554-1.378l2.987,3.748l3.639,4.548l-1.853,5.241l-1.468,4.165l-0.333,0.95l-16.51,6.135l-6.542-1.251l-6.626-1.268
		l-4.289-2.105l0.617-2.111l13.554,1.72l4.823-1.045l0.4-0.081l0.067-0.193l2.871-8.663l1.786-5.341l0.635-1.928l-5.258-1.729
		l-11.918-15.489l0.935-1.652l-11.818-8.897l2.603-8.062l-28.524-5.315l-0.751,1.353l-8.18,14.788l5.677,5.031l2.753,6.719
		l20.196,9.69l-2.036,5.674l-44.565-12.651l-19.029-0.826l5.359,6.868l-1.787,2.378l-2.77,3.724l-9.982-4.299l-26.773,6.134
		l-12.268-0.61l5.659-6.676l-8.079,1.794l-2.537,0.559l-0.935,0.209l-1.753,3.847l-2.554-1.969l-18.676,5.884v3.288l-7.712,0.608
		l-2.553,6.253l-15.508-3.414l-2.203-4.257l9.949-3.547l-20.496-4.881l-5.043-1.211l5.326,4.123l2.569,1.986l-1.418,7.035
		l5.408,2.597v10.83l-4.79-3.712l-0.769-0.618l-6.158-1.202l-19.48,8.595l8.18,8.63l-2.605,1.82l-24.219-6.276l-4.088,3.53
		l14.037,6.469l-5.676,4.63l-6.994-3.295l-14.371-5.199l-5.491-8.245l1.352-3.523l-19.212-10.732l-2.72-3.489l57.602,11.992
		l11.234-7.661l-10.283-12.002l-48.589-12.81l-5.307,1.829l-26.289-5.483l-7.278-4.516l15.424-2.186l-15.456-4.107l-5.292,4.874
		l2.02-7.077l-8.73,0.251l0.851,4.348l-1.101,0.117l-3.456,0.384l0.669-2.93l0.283-1.235l-0.885,0.685l-1.167,0.875l-1.754,1.343
		l-7.527,5.686l5.375-8.764l0.718-1.186l-3.789,1.32l-14.739,5.132l0.768-3.714l-10.666,1.026l-0.851,6.502l-6.727,4.84l-8.896-2.77
		l-0.602-2.745l-12.035,3.938l-0.775,4.674l-9.914,7.912l-30.321,31.203l-16.449,11.443l-9.415,0.709l-1.826,1.011l-21.791,11.959
		l-3.864,2.119l0.201,8.262l8.712,1.92l7.753,1.71l-6.91,0.352l-11.049,0.55l9.288,17.367l-5.492,5.876l13.87,7.904l5.477-2.229
		l17.417-7.102l1.527-5.925l2.938-2.588l17.818,33.909l-1.702,1.702l0.426,1.528l2.461,8.954l10.583-0.709l0.542-4.248l13.496-2.695
		l2.854-9.524l2.795-9.287l-3.947-6.986l12.576-3.529l7.111-9.031l-10.073-8.688l-3.138-2.704l-0.776-8.914l8.312-12.677
		l12.402-5.767l5.874-2.744l3.172-5.509l-1.168-4.297l8.747-7.321l14.971-1.034l6.661,8.654v0.026l-5.058,1.32l-15.589,15.873
		l-6.126,0.292l-1.769,4.522l4.138,9.907l-1.451,10.708l14.771,7.794l9.949-2.146l33.833-7.319l0.4,4.591l12.435,4.505
		l-17.709,2.195l-0.117,3.572l-29.059,1.763l-5.109,0.316l-0.082,3.972l4.907,7.002l2.119,2.988l-0.952,9.379l-1.436-0.816
		l-8.995-5.107l-7.244-1.361l-5.809,8.495l0.935,15.357l0.318,5.307l-9.614,1.152l-0.953,1.595l-1.485,2.47l-8.279,0.492
		l-2.371-3.388l-0.316-0.443l-1.519,0.383l-36.295,9.081l-4.967-4.139l1.837-2.812l-18.753,4.239l-6.835-4.731l-4.114-2.839
		l-1.21-0.834l-0.067-0.292l-1.135-4.607l-0.25-1.018l9.931-12.336l-4.315-0.542V227.4l-12.469,7.194l-5.357,3.096l4.631,19.862
		l2.063,8.839l-3.323,0.818v5.157h-4.791l-2.853-3.22l-18.92,4.264l0.784,6.491l-2.211,2.447l-2.754-2.679l1.544-2.837l-4.248,0.767
		l-3.297,7.678l-0.501,1.16l-22.224,10.249l-1.978,9.99l-6.676,2.271l-1.545,0.516l-3.437,3.731l-10.8,1.327l-1.645-3.664
		l-4.539-0.025l1.644,9.814l-9.139,2.279l-9.021-2.279l-10.199,3.314l0.243,3.33l22.441,12.518l7.128,9.44l1.685,4.322l-2.379,5.225
		l-1.677,16.048l-7.286,6.134l-41.043-2.863l-13.496-0.933l-1.326,3.162l-9.64,4.432l4.481,7.035l-2.628,5.133l0.393,13.72
		l-7.604,18.243l-0.25,5.859l4.882,0.493l0.442,17.517l16.484-2.412l6.566,5.55l1.87,6.835l6.193-2.687l6.134-3.447l10.141-0.151
		l1.368-0.023l6.275-1.57l8.814-2.196l9.022-5.064l10.891-14.764l-2.588-4.181l-0.217-7.804l5.934-7.57l3.714-5.064l15.766-6.427
		l6.626-8.045l-1.436-9.047l4.438-4.599l14.272-0.125l7.527,5.816l6.994-3.037l15.598-11.767l6.76-0.6l9.615,5.874l1.927,7.194
		l4.265,7.596l28.81,19.011l5.616,0.108l2.27,3.838l2.612,5.993l4.724,0.943l0.943,2.479l3.205,8.462l-2.796,7.42l-0.626,3.621
		l2.412,0.993l3.405-4.656l5.307-6.835l1.478-5.216l-4.056-2.261l-1.403-3.331l-0.692-1.593l3.188-4.959l5.183,0.109l4.639,3.238
		l1.019,0.685l0.133,0.099l3.222,2.238l0.417-4.024l0.133-1.259l-1.685-0.884l-4.473-2.338l-4.623-2.403l-11.284-5.883l0.393-4.123
		l-12.778-3.589l-6.51-5.15l-5.049-12.535l-6.26-1.761l-5.089-5.642l-1.378-9.872l1.36-1.928l1.828-2.588l8.537-1.159l3.948,9.898
		l5.174-5.042l3.931,3.08l4.866,8.872l6.576,4.54l32.131,22.225l0.318,0.225l-3.439,13.637l2.02,2.011l15.59,15.506l0.333,4.782
		l17.543,2.921l1.752,3.731l-17.61-0.518l5.141,11.158l12.653,6.126l1.769-12.877l6.042-2.513l-11.25-11.233l2.087-5.098
		l-4.056-12.636l10.365-3.489l26.773,0.961l17.259-4.182l9.982,1.551l-0.802,1.47l-1.82,3.281l-1.535,0.183l-23.918,2.828
		l-2.255,6.218l6.511,1.369l1.986,7.811l4.991,19.613l16.307,8.714l11.568,0.275l5.057-6.253l21.866,9.307l5.206-1.919l5.827-6.745
		l7.694,2.921l6.509-4.164l1.702-1.085l-0.851,2.186l-2.319,6.085l0.083,4.658l3.055,9.119l-12.769,42.389l-11.702,5.049
		l-3.688,1.577l-0.951-1.659l-3.021-5.184l-24.269,4.698l-3.723,0.727l-5.659-0.884l-31.996-5.042l-2.136-4.732l-15.991-3.539
		l-4.723-6.266l-28.092,3.697l1.051,13.887l-0.533,0.55l-5.976,6.352l-6.727,2.695l-0.2-0.142l-9.698-6.802l-1.903-1.344
		l-2.052-0.359l-10.433-1.861l-1.268-0.625l-5.292-2.588l-5.29-10.865l-37.814-12.035l-10.482-5.917l10.239-12.35l-6.191-12.044
		l-0.918-6.877l-5.792-6.686l-12.284,5.55l-15.291-0.484l-12.109,2.929l-9.297-3.989l-44.557,11.792l-15.314,7.578l-4.657,2.296
		l-4.832-2.871l-1.319,0.101l-4.549,0.333l-9.915,0.75l-0.716,0.058l-4.565-4.832l-8.247-1.117l-5.191,11.808l-1.685,3.839
		l-20.598,13.421l-0.466,0.301l-11.884,20.154l1.318,15.874l-23.736,21.171l-8.871,2.037l-5.792,11.584l-5.449,4.808l-2.904,8.862
		l-2.463,7.495l-1.928,5.867c0,0-0.091,0.05-0.107,0.067c-0.593,0.325-9.232,5.241-10.083,5.909
		c-0.875,0.692-13.595,29.326-13.595,29.326l6.577,12.576l-1.352,7.729l4.348,13.311l-6.05,18.702l-3.297,10.158l-6.159,11.299
		l2.938,6.995l3.839,9.096l-0.826,14.087l11.024,8.772l9.606,10.508l10.616,11.615l4.024,19.121l1.108,0.817l21.942,16.208
		l31.062,21.54l22.399-9.705l19.405-1.236l17.642,3.471l16.524-6.134l24.896-9.247l1.293-0.467l19.937,3.506l0.561,0.976
		l7.444,12.993l3.071,5.35l21.507-2.511l15.398,6.242l5.44,15.732l-10.423,34.818l0.951,2.988l3.322,10.499l18.96,26.805l0.477,0.66
		l8.028,21.574l11.826,24.294l-2.904,6.734l-1.343,3.172l8.662,25.014l-12.778,22.823l-9.113,46.152l2.637,5.39l25.354,52.012
		l-0.217,10.465l6.519,41.779l3.931,6.859l12.969,22.617l10.449,21.849l-1.619,11.316l-0.118,0.816l7.261,18.945l33.717-3.587
		l21.396,1.435l3.055-0.951l19.346-6.143l31.863-26.856l6.076-9.98l6.944-11.385l9.196-6.978l8.213-24.853l-1.886-11.366
		l9.881-4.356l14.154-6.209l0.617-6.727l1.569-16.742l0.634-6.526l-6.091-16.875l12.301-14.704l16.191-17.868l19.329-8.137
		l13.87-22.743l-2.671-28.684l2.237-13.471l-7.095-12.333l-4.823-22.876l0.034-0.384l1.167-14.212l-5.374-11.968l1.035-2.254
		l14.439-30.754l13.201-10.799l25.722-38.349l17.61-7.794l22.399-28.109l17.943-36.677l4.893-16.718l2.053-7.018l4.021-13.354
		l-8.161-4.924l-9.582,8.714l-15.905,3.129l-15.607,3.071l-18.811,3.155l-10.616-9.272l-5.942-5.191l-0.184-0.159l4.84-10.289
		l-0.9-0.726l-33.383-26.799l-2.454-1.969l-7.845-25.988l-17.66-17.427l-2.886-19.336l-2.104-14.147l-14.705-13.245v-0.284
		c0.016-1.351,0.084-8.995,0.6-10.914c0.635-2.113-21.414-40.11-21.414-40.11l-11.901-26.456l12.251,18.261l9.565,2.596
		l25.086,31.996l17.777,22.659l5.776,21.365l2.57,9.431l29.159,36.503l13.837,50.425l0.101,0.376l0.499,0.024l6.044,0.268
		l4.189,0.191l4.189,0.201l64.413-29.836l6.109-8.63l2.536-1.526l28.877-17.393l9.614-3.664l4.005-8.555l1.152-2.493l4.741-10.167
		l5.608-5.9l14.689-19.663l-14.739-14.046l-15.791-4.122l-5.475-11.908l-2.57-8.514l-17.608,14.096l-4.924,3.948l-21.617-0.259
		l-9.229-7.102l-2.538-7.553l-3.788-11.2l-29.627-33.875l0.701-0.576l11.849-10.09l18.713,14.464l2.42,2.687l10.482,11.709
		l1.069,1.185l9.864,4.539l19.763,9.073l10.831-4.49l5.809-2.394l4.39,7.492l0.367,0.626l12.486,8.881l8.98,1.41l18.242,2.863
		l27.157-1.661h6.294l18.977-0.009l14.789,14.321l6.726,6.502l6.76,7.11l13.603-2.286l-8.545,9.014l-5.591,1.434l12.434,7.903
		l10.199,6.461l5.992-1.911l0.634-0.211l2.604-15.405l7.812,2.128l-0.835,16.349l-0.534,10.149l14.655,44.959l4.406,13.485
		l19.211,42.613l13.771,30.529l6.394,1.777l20.848-27.69v-13.737v-6.218V718.6l1.118-26.438l18.828-13.78l8.863-10.006
		l17.642-19.913l2.353-2.22l10.816-10.107l8.815-17.484l23.718-10.206l21.081,27.473l1.251,1.119l5.675,4.957l1.218,3.213
		l16.458,43.373l10.448,1.378l14.923-17.092L2304.282,696.809z"/>
	<path fill="#AFAFB2" d="M2520.484,734.734c1.921,9.09,0.646,18.057,6.976,16.666c7.084-1.558,5.829-11.335,5.394-17.391
		c-0.534-7.36-2.202-18.706-5.709-24.635c-2.401-4.061-5.24-4.752-8.087-5.797c-3.021-1.816-6.315-3.797-3.173-10.507
		c3.526-7.523,0.98-14.145-4.123-14.854c-9.756-1.355-7.246,11-7.136,15.579c0.322,13.249,5.113,7.895,3.173,16.485
		c-2.26,9.994-10.357,21.298-16.968,28.62c5.535-3.533,12.897-9.673,16.017-16.122c1.558-3.224,1-8.358,6.977-7.789
		c1.571,10.324,4.023,11.827,3.646,16.846c-0.733,9.797-3.588,10.349-8.245,17.209c-2.734,4.027-2.242,3.768-3.014,8.695
		c3.464-7.913,1.772-4.009,8.563-10.868c4.104-4.145,2.061-2.745,3.013-5.434C2518.229,740.191,2518.6,740.919,2520.484,734.734"/>
	<path fill="#AFAFB2" d="M2509.399,645.552c-0.245,7.566-6.166,5.494-4.513,12.662c1.301,5.638,6.391,5.932,8.234,2.895
		c0.066-0.109,0.83-3.81,2.297-7.055C2520.927,641.858,2511.01,636.813,2509.399,645.552"/>
	<path fill="#AFAFB2" d="M2587.4,554.674c1.621,34.279-12.682,18.364-16.651,31.52l-0.95,6.34c-2.682-2.298-5.92-4.547-9.515-3.985
		c-4.295,0.672-4.951,3.542-6.501,7.427c-1.128,2.826-0.94,2.465-1.428,5.434c-6.672-3.049-7.478,0.81-6.342,7.246
		c0.693,3.936,4.881,10.2,7.115,3.584c1.41-4.168-0.952-12.272,4.777-11.373c3.088,0.484,12.335,5.075,15.539-6.521
		c6.998,7.194,13.548-5.446,15.223-11.594c3.743-13.731,8.812-11.133,7.295-17.571c-0.775-3.288-5.001-2.591-3.49-11.232
		c4.146-2.029,3.818,1.559,7.297,3.261c2.19-1.252,1.906-2.549,2.854-5.072c3.909-1.374,7.029,0.544,7.928-3.804
		c1.061-5.126,0.121-3.494,10.94-7.608c2.668-1.014,10.339-2.539,8.722-7.609c-3.087-9.684-22.336,18.061-29.811,9.783
		c-3.358-3.721-1.458-6.932-6.66-7.428c-4.661,6.088,2.408,8.507-6.818,11.594c-3.63,1.214-4.531,5.007-2.378,8.695L2587.4,554.674z
		"/>
	<path fill="#AFAFB2" d="M2592.451,528.064c-0.443,8.389,4.991,0.55,9.738,8.682c0.296-11.492,0.21-5.254-2.851-11.756
		c-1.81-3.847-0.935-8.154,4.513-4.704c2.399,1.519,0.982,0.861,4.116,1.809c-3.624-5.061-5.927-10.156-7.521-16.733
		c-1.557-6.42,5.271-18.073-1.188-19.355c-7.149-1.419-5.848,13.789-5.779,17.185
		C2598.331,509.472,2593.219,513.549,2592.451,528.064"/>
</g>
</svg>
